<mxfile host="app.diagrams.net" modified="2023-04-15T15:09:55.907Z" agent="Mozilla/5.0 (Macintosh; Intel Mac OS X 10_15_7) AppleWebKit/537.36 (KHTML, like Gecko) Chrome/112.0.0.0 Safari/537.36" version="21.1.8" etag="R9p1y_pjCINtSCyMW9pL" type="github">
  <diagram name="Page-1" id="TatTWUAdIbRKU4Jew3bi">
    <mxGraphModel>
      <root>
        <mxCell id="0" />
        <mxCell id="1" parent="0" />
      </root>
    </mxGraphModel>
  </diagram>
</mxfile>
